<?xml version="1.0" encoding="UTF-8"?>
<svg width="50" height="50" version="1.1" viewBox="0 0 256 256" xmlns="http://www.w3.org/2000/svg">
 <g fill="none">
  <path d="m128 30c-55.222 0-100 44.77-100 100 0 44.183 28.653 81.667 68.387 94.89 4.997 0.926 6.832-2.169 6.832-4.81 0-2.385-0.093-10.262-0.136-18.618-27.82 6.049-33.69-11.799-33.69-11.799-4.55-11.559-11.104-14.632-11.104-14.632-9.073-6.207 0.684-6.079 0.684-6.079 10.042 0.705 15.33 10.305 15.33 10.305 8.919 15.288 23.394 10.868 29.1 8.313 0.898-6.464 3.489-10.875 6.349-13.372-22.211-2.529-45.56-11.104-45.56-49.421 0-10.918 3.906-19.839 10.303-26.842-1.039-2.519-4.462-12.69 0.968-26.464 0 0 8.398-2.687 27.508 10.25 7.977-2.215 16.531-3.326 25.03-3.364 8.498 0.038 17.06 1.149 25.051 3.365 19.087-12.939 27.473-10.25 27.473-10.25 5.443 13.773 2.019 23.945 0.98 26.463 6.412 7.003 10.292 15.924 10.292 26.842 0 38.409-23.394 46.866-45.662 49.341 3.587 3.104 6.783 9.189 6.783 18.519 0 13.38-0.116 24.149-0.116 27.443 0 2.661 1.8 5.779 6.869 4.797 39.712-13.238 68.329-50.709 68.329-94.877 0-55.23-44.773-100-99.999-100m-62.547 142.45c-0.22 0.497-1.002 0.646-1.714 0.305-0.726-0.326-1.133-1.004-0.898-1.502 0.215-0.512 0.999-0.654 1.722-0.311 0.727 0.326 1.141 1.01 0.89 1.508m4.919 4.389c-0.477 0.443-1.41 0.237-2.042-0.462-0.654-0.697-0.777-1.629-0.293-2.078 0.491-0.442 1.396-0.235 2.051 0.462 0.654 0.706 0.782 1.631 0.284 2.078m3.374 5.616c-0.613 0.426-1.615 0.027-2.234-0.863-0.613-0.889-0.613-1.955 0.013-2.383 0.621-0.427 1.608-0.043 2.236 0.84 0.611 0.904 0.611 1.971-0.015 2.406m5.707 6.504c-0.548 0.604-1.715 0.442-2.57-0.383-0.874-0.806-1.118-1.95-0.568-2.555 0.555-0.606 1.729-0.435 2.59 0.383 0.868 0.804 1.133 1.957 0.548 2.555m7.376 2.195c-0.242 0.784-1.366 1.14-2.499 0.807-1.13-0.343-1.871-1.26-1.642-2.052 0.235-0.788 1.364-1.159 2.505-0.803 1.13 0.341 1.871 1.252 1.636 2.048m8.394 0.932c0.028 0.824-0.932 1.508-2.121 1.523-1.196 0.027-2.163-0.641-2.176-1.452 0-0.833 0.939-1.51 2.134-1.53 1.19-0.023 2.163 0.639 2.163 1.459m8.246-0.316c0.143 0.804-0.683 1.631-1.864 1.851-1.161 0.212-2.236-0.285-2.383-1.083-0.144-0.825 0.697-1.651 1.856-1.865 1.183-0.205 2.241 0.279 2.391 1.097" fill="#3c2178"/>
 </g>
</svg>
