<?xml version="1.0" encoding="UTF-8"?>
<svg width="50" height="50" version="1.1" viewBox="0 0 256 256" xmlns="http://www.w3.org/2000/svg">
 <g fill="none">
  <path d="m184.72 217.68h29.27a4 4 0 0 0 4-3.999l0.015-61.842c0-32.323-6.965-57.168-44.738-57.168-14.359-0.534-27.9 6.868-35.207 19.228a0.32 0.32 0 0 1-0.595-0.161v-12.083a4 4 0 0 0-4-4h-27.777a4 4 0 0 0-4 4v112.02a4 4 0 0 0 4 4h29.268a4 4 0 0 0 4-4v-55.373c0-15.657 2.97-30.82 22.381-30.82 19.135 0 19.383 17.916 19.383 31.834v54.364a4 4 0 0 0 4 4m-146.72-158.06c0 11.864 9.767 21.626 21.632 21.626 11.862-1e-3 21.623-9.769 21.623-21.631-2e-3 -11.862-9.764-21.623-21.627-21.623-11.866 0-21.628 9.763-21.628 21.627m6.959 158.06h29.307a4 4 0 0 0 4-4v-112.02a4 4 0 0 0-4-4h-29.307a4 4 0 0 0-4 4v112.02a4 4 0 0 0 4 4" fill="#3c2178"/>
 </g>
</svg>
