<?xml version="1.0" encoding="UTF-8"?>
<svg width="50" height="50" version="1.1" viewBox="0 0 256 256" xmlns="http://www.w3.org/2000/svg">
 <path d="m103.86 227.54c-3.375-0.802-6.2016-2.675-10.156-6.731-6.6048-6.776-11.967-9.599-21.284-11.201-9.6666-1.664-13.961-5.258-16.543-13.838-3.1881-10.593-6.5195-15.665-13.839-21.072-8.3047-6.134-10.435-11.542-8.4088-21.345 1.8774-9.078 1.1589-15.533-2.6538-23.832-4.55-9.901-3.9885-15.191 2.4729-23.303 5.9239-7.4379 7.7824-12.353 8.6699-22.924 0.8943-10.668 3.8622-15.044 12.604-18.586 7.2943-2.956 13.536-8.0879 16.995-13.974 4.0005-6.8079 4.5842-7.5879 7.0639-9.4379 4.0005-2.985 7.2346-3.811 13.394-3.4253 10.701 0.6707 16.435-0.6144 23.62-5.2924 9.368-6.0979 15.05-6.0979 24.417 0 7.187 4.678 12.922 5.9631 23.621 5.2924 10.119-0.6349 14.329 2.0207 20.497 12.932 3.057 5.405 9.303 10.667 16.142 13.594 9.738 4.1677 12.567 7.9718 13.286 17.857 0.778 10.706 2.973 16.691 8.788 23.965 6.475 8.096 7.04 13.392 2.486 23.303-3.811 8.299-4.531 14.754-2.654 23.832 2.028 9.803-0.104 15.211-8.407 21.345-7.32 5.407-10.651 10.479-13.839 21.072-2.582 8.58-6.878 12.174-16.543 13.838-9.339 1.606-14.704 4.437-21.285 11.223-7.295 7.523-12.524 8.764-22.721 5.393-8.341-2.758-14.763-2.77-23.069-0.043-5.82 1.91-8.921 2.243-12.654 1.359z" fill="#fff"/>
 <path d="m163.85 119.52c-0.63-1.287-0.09-2.828 1.195-3.458s2.828-0.09 3.458 1.195c0.629 1.285 0.09 2.828-1.195 3.458-1.285 0.629-2.828 0.09-3.458-1.195zm12.505 25.702c-0.63-1.285-0.09-2.828 1.195-3.457 1.285-0.63 2.828-0.089 3.457 1.196 0.63 1.285 0.091 2.826-1.194 3.456s-2.828 0.091-3.458-1.195zm1.092-33.35c-8.224-5.872-18.956-7.39-28.89-3.546l27.155 55.839c9.151-5.436 14.575-14.83 15.037-24.919l10.307 0.733c0.141 0.011 0.282-8e-3 0.417-0.053 0.134-0.045 0.258-0.116 0.364-0.21 0.106-0.093 0.193-0.206 0.255-0.333 0.062-0.128 0.099-0.266 0.107-0.407 0.01-0.141-8e-3 -0.283-0.052-0.417-0.045-0.134-0.117-0.258-0.21-0.364-0.093-0.107-0.206-0.193-0.333-0.256-0.127-0.062-0.266-0.098-0.407-0.106l-10.436-0.746c-0.102-4.395-1.155-8.88-3.251-13.198-2.094-4.306-4.973-7.904-8.366-10.706l5.86-8.675c0.155-0.235 0.21-0.521 0.155-0.797s-0.216-0.519-0.448-0.678c-0.232-0.158-0.518-0.219-0.794-0.169-0.277 0.05-0.523 0.206-0.686 0.436l-5.784 8.56" fill="#3DDC84"/>
 <path d="m152.41 132.9c-7.659 3.702-15.897 5.577-24.482 5.577-9.354 7e-3 -18.563-2.315-26.795-6.758-8.2316-4.442-15.228-10.864-20.357-18.687-0.809-1.233-2.4798-1.529-3.6745-0.655l-9.8577 7.26c-1.1179 0.823-1.3756 2.391-0.5922 3.548 6.7436 10.061 15.862 18.304 26.55 24.002 10.687 5.698 22.614 8.674 34.726 8.666 11.22 0 22.002-2.454 32.039-7.3l-7.557-15.653zm-29.904-61.776h10.667v-11.785c0-2.944-2.391-5.3333-5.334-5.3333-2.944 0-5.333 2.3893-5.333 5.3333v11.785z" fill="#4285F4"/>
 <path d="m113.96 94.123-36.666 75.464c-0.7926 1.627-1.2223 3.407-1.2595 5.217l-0.2185 9.883c-0.0512 2.558 2.9048 3.997 4.8845 2.378l7.6339-6.273c1.401-1.147 2.5365-2.585 3.328-4.213l36.139-74.399-13.829-8.0453-0.012-0.012zm65.696 80.669c-0.037-1.813-0.474-3.586-1.259-5.217l-36.664-75.466-13.83 8.0709 36.139 74.371c0.795 1.628 1.93 3.065 3.328 4.216l7.634 6.272c1.98 1.62 4.948 0.179 4.885-2.377l-0.219-9.884-0.014 0.014z" fill="#4285F4"/>
 <path d="m127.84 70.18c-8.829 0-16 7.1851-16 16 0 8.8166 7.185 16 16 16 8.816 0 16-7.1835 16-16 0-8.815-7.184-16-16-16zm0 24.803c-4.844 0-8.803-3.9442-8.803-8.803 0-4.8572 3.945-8.803 8.803-8.803s8.804 3.9458 8.804 8.803c0 4.8588-3.946 8.803-8.804 8.803z" fill="#073042"/>
</svg>
