<?xml version="1.0" encoding="UTF-8" standalone="no"?>
<svg
   width="50"
   height="50"
   viewBox="0 0 24 24"
   version="1.1"
   id="svg1"
   sodipodi:docname="Astro.svg"
   inkscape:version="1.4 (86a8ad7, 2024-10-11)"
   xmlns:inkscape="http://www.inkscape.org/namespaces/inkscape"
   xmlns:sodipodi="http://sodipodi.sourceforge.net/DTD/sodipodi-0.dtd"
   xmlns="http://www.w3.org/2000/svg"
   xmlns:svg="http://www.w3.org/2000/svg">
  <defs
     id="defs1" />
  <sodipodi:namedview
     id="namedview1"
     pagecolor="#ffffff"
     bordercolor="#000000"
     borderopacity="0.25"
     inkscape:showpageshadow="2"
     inkscape:pageopacity="0.0"
     inkscape:pagecheckerboard="0"
     inkscape:deskcolor="#d1d1d1"
     inkscape:zoom="16.14"
     inkscape:cx="25"
     inkscape:cy="25"
     inkscape:window-width="1920"
     inkscape:window-height="1009"
     inkscape:window-x="-8"
     inkscape:window-y="-8"
     inkscape:window-maximized="1"
     inkscape:current-layer="svg1" />
  <path
     fill="#000000"
     d="m 9.24,18.574717 c -0.901,-0.771956 -1.164,-2.39344 -0.789,-3.569132 0.65,0.741116 1.552,0.975694 2.486,1.108403 1.44,0.203737 2.856,0.128037 4.195,-0.489716 0.153,-0.07102 0.295,-0.165419 0.462,-0.259811 0.126,0.341119 0.159,0.685976 0.115,1.037376 -0.107,0.855134 -0.56,1.515876 -1.283,2.016806 -0.289,0.200934 -0.594,0.379438 -0.892,0.568221 -0.916,0.581304 -1.164,1.261673 -0.82,2.252319 l 0.034,0.106542 a 2.4,2.242974 0 0 1 -1.07,-0.857938 2.6,2.4298884 0 0 1 -0.412,-1.309336 c -0.003,-0.231774 -0.003,-0.464482 -0.036,-0.691584 -0.081,-0.55607 -0.36,-0.803732 -0.883,-0.818684 a 1.034,0.96634798 0 0 0 -1.075,0.787844 q -0.013,0.0542 -0.033,0.117756 M 4.1,14.810259 c 0,0 2.666,-1.217748 5.34,-1.217748 l 2.016,-5.8504233 c 0.075,-0.28411 0.296,-0.476632 0.544,-0.476632 0.25,0 0.47,0.192522 0.545,0.476632 l 2.016,5.8504233 c 3.167,0 5.34,1.217748 5.34,1.217748 L 15.363,3.2168877 C 15.233,2.8748342 15.013,2.6542751 14.718,2.6542751 H 9.283 c -0.296,0 -0.506,0.2205591 -0.645,0.5626126 C 8.628,3.2393175 4.1,14.810259 4.1,14.810259"
     id="path1"
     style="stroke-width:0.966733" />
</svg>
