<?xml version="1.0" encoding="UTF-8"?>
<svg width="50" height="50" version="1.1" viewBox="0 0 256 256" xmlns="http://www.w3.org/2000/svg">
 <path d="m220.58 54.178-157.96 120.17c-19.397-35.17-26.116-77.597-26.618-103.04v-15.575c0-2.2655 2.4578-3.5868 3.6869-3.9646 25.998-7.8345 78.787-23.731 81.963-24.637 3.177-0.9062 5.861-1.1327 6.808-1.1327h0.085c0.946 0 3.63 0.2265 6.807 1.1327 3.176 0.9062 55.966 16.802 81.964 24.637 0.914 0.281 2.508 1.0841 3.264 2.4087z" clip-rule="evenodd" fill="url(#gradient-1)" fill-rule="evenodd"/>
 <path d="m62.617 174.55 157.96-120.17c0.261 0.4571 0.423 0.9753 0.423 1.5559v15.575c-0.851 43.139-19.57 135.08-87.636 157.73-0.945 0.377-3.176 1.133-4.538 1.133h-0.653c-1.361 0-3.593-0.756-4.538-1.133-27.916-9.292-47.532-30.237-61.018-54.691z" clip-rule="evenodd" fill="url(#gradient-2)" fill-rule="evenodd"/>
 <path d="m134.83 27.135c-3.178-0.908-5.864-1.135-6.81-1.135l-0.284 204.58h0.568c1.362 0 3.594-0.756 4.54-1.135 68.1-22.7 86.827-114.82 87.678-158.05v-15.606c0-2.27-2.459-3.5942-3.689-3.9725-26.01-7.8504-78.825-23.778-82.003-24.686z" fill="url(#gradient-3)" fill-opacity=".21"/>
 <path d="m128.79 169.01c23.35 0 42.278-18.802 42.278-41.995s-18.928-41.995-42.278-41.995-42.279 18.802-42.279 41.995 18.929 41.995 42.279 41.995z" fill="#E3E2FA"/>
 <path d="m121.12 136.1c-3.216 0.284-11.35-1.135-15.323-4.54-4.265-3.657-6.5259-8.512-6.5259-15.607 0-8.8 7.9449-18.159 19.011-17.876 10.511 0.2694 17.6 6.1947 19.012 15.606 0.737 4.912-0.014 7.273-0.598 9.106-0.09 0.286-0.177 0.558-0.253 0.826-0.284 0.946-0.681 3.008 0 3.689 0.68 0.681 11.066 10.688 16.173 15.605 0.473 0.568 1.419 1.987 1.419 3.122v5.391c0 0.851-0.227 1.135-1.135 1.135h-11.35c-0.662-0.094-1.987-0.737-1.987-2.553 0-1.936-0.206-2.221-0.619-2.792-0.071-0.098-0.148-0.205-0.232-0.33-0.567-0.851-1.702-0.851-2.837-0.851s-1.986-0.284-2.553-0.851c-0.568-0.568-0.568-1.419-0.284-2.554s0-2.27-0.568-2.554c-0.09-0.045-0.195-0.104-0.312-0.172-0.623-0.353-1.616-0.918-2.809-0.679-1.419 0.284-3.406 0-4.54-1.135-1.135-1.135-2.554-2.052-3.689-1.986zm-7.662-21.565c2.351 0 4.257-1.905 4.257-4.256s-1.906-4.256-4.257-4.256c-2.35 0-4.256 1.905-4.256 4.256s1.906 4.256 4.256 4.256z" clip-rule="evenodd" fill="url(#gradient-4)" fill-rule="evenodd"/>
 <linearGradient id="gradient-1" x1="53.309" x2="122.26" y1="111.41" y2="39.336" gradientUnits="userSpaceOnUse">
  <stop stop-color="#45FFC8" offset="0"/>
  <stop stop-color="#1DBBF1" offset="1"/>
 </linearGradient>
 <linearGradient id="gradient-2" x1="101.26" x2="186.95" y1="153.12" y2="194.83" gradientUnits="userSpaceOnUse">
  <stop stop-color="#D14AE8" offset="0"/>
  <stop stop-color="#B628E3" offset=".55223"/>
  <stop stop-color="#8315FD" offset="1"/>
 </linearGradient>
 <linearGradient id="gradient-3" x1="173.9" x2="173.9" y1="45.295" y2="187.45" gradientUnits="userSpaceOnUse">
  <stop stop-color="#20ABF5" offset="0"/>
  <stop stop-color="#2A8CC3" offset=".39809"/>
  <stop stop-color="#A104DC" offset="1"/>
 </linearGradient>
 <linearGradient id="gradient-4" x1="115.73" x2="150.35" y1="113.96" y2="148.86" gradientUnits="userSpaceOnUse">
  <stop stop-color="#FE5B01" offset="0"/>
  <stop stop-color="#FFB200" offset="1"/>
 </linearGradient>
</svg>
