<?xml version="1.0" encoding="UTF-8"?>
<svg width="50" height="50" version="1.1" viewBox="0 0 256 256" xmlns="http://www.w3.org/2000/svg">
 <g fill="none">
  <g clip-path="url(#skillIconsFigmaLight0)">
   <path d="M94.347 228c18.4 0 33.333-14.933 33.333-33.333v-33.334H94.347c-18.4 0-33.334 14.934-33.334 33.334S75.947 228 94.347 228" fill="#0acf83"/>
   <path d="M61.013 128c0-18.4 14.934-33.333 33.334-33.333h33.333v66.666H94.347c-18.4 0-33.334-14.933-33.334-33.333" fill="#a259ff"/>
   <path d="M61.013 61.333C61.013 42.933 75.947 28 94.347 28h33.333v66.667H94.347c-18.4 0-33.334-14.934-33.334-33.334" fill="#f24e1e"/>
   <path d="M127.68 28h33.333c18.4 0 33.334 14.933 33.334 33.333s-14.934 33.334-33.334 33.334H127.68z" fill="#ff7262"/>
   <path d="M194.347 128c0 18.4-14.934 33.333-33.334 33.333S127.68 146.4 127.68 128s14.933-33.333 33.333-33.333S194.347 109.6 194.347 128" fill="#1abcfe"/>
  </g>
  <defs>
   <clipPath id="skillIconsFigmaLight0">
    <path d="M61 28h133.36v200H61z" fill="#fff"/>
   </clipPath>
  </defs>
 </g>
</svg>
