<?xml version="1.0" encoding="UTF-8" standalone="no"?>
<svg xmlns="http://www.w3.org/2000/svg" width="50" height="50" viewBox="0 0 256 256">
  <g
     clip-path="url(#clip0_120_2353)"
     id="g2">
    <path
       d="M 196,0 H 60 C 26.8629,0 0,26.8629 0,60 v 136 c 0,33.137 26.8629,60 60,60 h 136 c 33.137,0 60,-26.863 60,-60 V 60 C 256,26.8629 229.137,0 196,0 Z"
       fill="#f4f2ed"
       id="path1" />
    <path
       d="M 223.295,119.23 136.838,32.7376 c -1.183,-1.185 -2.589,-2.1249 -4.136,-2.7662 C 131.155,29.33 129.496,29 127.822,29 c -1.674,0 -3.333,0.33 -4.88,0.9714 -1.547,0.6413 -2.953,1.5812 -4.136,2.7662 l -17.946,17.9535 22.773,22.7824 c 5.297,-1.8573 11.362,-0.5882 15.581,3.634 2.009,2.0134 3.412,4.5516 4.048,7.3245 0.636,2.7729 0.479,5.6689 -0.452,8.357 l 21.95,21.959 c 5.31,-1.832 11.436,-0.651 15.674,3.603 1.41,1.41 2.528,3.084 3.291,4.927 0.762,1.842 1.154,3.816 1.154,5.81 -0.001,1.994 -0.393,3.968 -1.156,5.811 -0.764,1.841 -1.882,3.515 -3.292,4.925 -1.409,1.41 -3.082,2.528 -4.923,3.29 -1.842,0.764 -3.815,1.156 -5.809,1.155 -1.993,0 -3.967,-0.393 -5.808,-1.156 -1.841,-0.763 -3.515,-1.882 -4.924,-3.292 -4.455,-4.458 -5.556,-11.02 -3.304,-16.512 l -20.47,-20.479 v 53.892 c 1.486,0.735 2.843,1.706 4.021,2.873 1.409,1.409 2.527,3.082 3.291,4.925 0.762,1.841 1.154,3.815 1.154,5.809 0,1.994 -0.392,3.968 -1.154,5.81 -0.764,1.842 -1.882,3.516 -3.291,4.926 -1.408,1.409 -3.082,2.528 -4.922,3.29 -1.842,0.763 -3.815,1.156 -5.808,1.156 -1.993,0 -3.966,-0.393 -5.807,-1.156 -1.841,-0.762 -3.515,-1.881 -4.924,-3.29 -1.41,-1.41 -2.529,-3.083 -3.293,-4.924 -0.764,-1.843 -1.157,-3.818 -1.157,-5.812 0,-1.994 0.393,-3.968 1.157,-5.81 0.764,-1.843 1.883,-3.516 3.293,-4.924 1.467,-1.461 3.095,-2.57 4.97,-3.313 v -54.393 c -1.807,-0.743 -3.503,-1.838 -4.97,-3.3116 -2.13,-2.1291 -3.579,-4.8448 -4.161,-7.8008 -0.581,-2.9561 -0.27,-6.0185 0.894,-8.7969 L 92.0228,59.5193 32.739,118.766 c -1.1853,1.185 -2.1256,2.591 -2.7672,4.139 -0.6416,1.549 -0.9718,3.208 -0.9718,4.884 0,1.676 0.3302,3.336 0.9718,4.884 0.6416,1.548 1.5819,2.955 2.7672,4.139 l 86.463,86.486 c 1.183,1.185 2.589,2.125 4.136,2.767 1.547,0.641 3.206,0.971 4.88,0.971 1.674,0 3.333,-0.33 4.88,-0.971 1.547,-0.642 2.953,-1.582 4.136,-2.767 l 86.061,-85.96 c 1.185,-1.184 2.126,-2.591 2.767,-4.139 0.642,-1.548 0.972,-3.207 0.972,-4.883 0,-1.676 -0.33,-3.337 -0.972,-4.885 -0.641,-1.548 -1.582,-2.955 -2.767,-4.139"
       fill="#f1502f"
       id="path2" />
  </g>
  <defs
     id="defs2">
    <clipPath
       id="clip0_120_2353">
      <rect
         width="256"
         height="256"
         fill="#ffffff"
         id="rect2"
         x="0"
         y="0" />
    </clipPath>
  </defs>
</svg>
