<?xml version="1.0" encoding="UTF-8"?>
<svg width="50" height="50" version="1.1" viewBox="0 0 256 256" xmlns="http://www.w3.org/2000/svg">
 <g clip-path="url(#clip0_120_2353)">
  <path d="m223.3 119.23-86.457-86.492c-1.183-1.185-2.589-2.1249-4.136-2.7662-1.547-0.6414-3.206-0.9714-4.88-0.9714s-3.333 0.33-4.88 0.9714c-1.547 0.6413-2.953 1.5812-4.136 2.7662l-17.946 17.954 22.773 22.782c5.297-1.8573 11.362-0.5882 15.581 3.634 2.009 2.0134 3.412 4.5516 4.048 7.3245s0.479 5.6689-0.452 8.357l21.95 21.959c5.31-1.832 11.436-0.651 15.674 3.603 1.41 1.41 2.528 3.084 3.291 4.927 0.762 1.842 1.154 3.816 1.154 5.81-1e-3 1.994-0.393 3.968-1.156 5.811-0.764 1.841-1.882 3.515-3.292 4.925-1.409 1.41-3.082 2.528-4.923 3.29-1.842 0.764-3.815 1.156-5.809 1.155-1.993 0-3.967-0.393-5.808-1.156s-3.515-1.882-4.924-3.292c-4.455-4.458-5.556-11.02-3.304-16.512l-20.47-20.479v53.892c1.486 0.735 2.843 1.706 4.021 2.873 1.409 1.409 2.527 3.082 3.291 4.925 0.762 1.841 1.154 3.815 1.154 5.809s-0.392 3.968-1.154 5.81c-0.764 1.842-1.882 3.516-3.291 4.926-1.408 1.409-3.082 2.528-4.922 3.29-1.842 0.763-3.815 1.156-5.808 1.156s-3.966-0.393-5.807-1.156c-1.841-0.762-3.515-1.881-4.924-3.29-1.41-1.41-2.529-3.083-3.293-4.924-0.764-1.843-1.157-3.818-1.157-5.812s0.393-3.968 1.157-5.81c0.764-1.843 1.883-3.516 3.293-4.924 1.467-1.461 3.095-2.57 4.97-3.313v-54.393c-1.807-0.743-3.503-1.838-4.97-3.3116-2.13-2.1291-3.579-4.8448-4.161-7.8008-0.581-2.9561-0.27-6.0185 0.894-8.7969l-22.463-22.46-59.284 59.247c-1.1853 1.185-2.1256 2.591-2.7672 4.139-0.6416 1.549-0.9718 3.208-0.9718 4.884s0.3302 3.336 0.9718 4.884 1.5819 2.955 2.7672 4.139l86.463 86.486c1.183 1.185 2.589 2.125 4.136 2.767 1.547 0.641 3.206 0.971 4.88 0.971s3.333-0.33 4.88-0.971c1.547-0.642 2.953-1.582 4.136-2.767l86.061-85.96c1.185-1.184 2.126-2.591 2.767-4.139 0.642-1.548 0.972-3.207 0.972-4.883s-0.33-3.337-0.972-4.885c-0.641-1.548-1.582-2.955-2.767-4.139" fill="#f1502f"/>
 </g>
 <defs>
  <clipPath id="clip0_120_2353">
   <rect width="256" height="256" fill="#fff"/>
  </clipPath>
 </defs>
</svg>
