<?xml version="1.0" encoding="UTF-8" standalone="no"?>
<svg
   width="50"
   height="50"
   viewBox="0 0 256 256"
   version="1.1"
   id="svg2"
   xmlns="http://www.w3.org/2000/svg"
   xmlns:svg="http://www.w3.org/2000/svg">
  <defs
     id="defs3" />
  <g
     fill="none"
     id="g2">
    <rect
       width="256"
       height="256"
       fill="#fff"
       rx="60"
       id="rect1"
       style="fill:none"
       x="0"
       y="0" />
    <g
       clip-path="url(#skillIconsGit0)"
       id="g1">
      <path
         fill="#f03c2e"
         d="M 224.225,119.094 136.906,31.775 a 12.87,12.87 0 0 0 -14.035,-2.793 12.9,12.9 0 0 0 -4.177,2.793 l -18.125,18.125 23,23 c 5.35,-1.875 11.475,-0.594 15.737,3.669 a 15.31,15.31 0 0 1 3.631,15.831 l 22.169,22.169 c 5.363,-1.85 11.55,-0.657 15.831,3.637 a 15.32,15.32 0 0 1 3.321,16.706 15.333,15.333 0 0 1 -20.029,8.293 c -1.86,-0.771 -3.55,-1.9 -4.973,-3.324 -4.5,-4.5 -5.612,-11.125 -3.337,-16.669 l -20.675,-20.675 v 54.407 a 15.6,15.6 0 0 1 4.062,2.9 15.326539,15.326539 0 0 1 -21.675,21.675 15.32,15.32 0 0 1 -3.326,-16.704 15.3,15.3 0 0 1 3.326,-4.971 c 1.481,-1.475 3.125,-2.594 5.019,-3.344 v -54.913 a 15.2,15.2 0 0 1 -5.019,-3.343 15.315,15.315 0 0 1 -3.3,-16.757 L 91.644,58.814 31.769,118.626 a 12.88,12.88 0 0 0 -2.795,14.04 12.9,12.9 0 0 0 2.795,4.179 l 87.325,87.312 a 12.9,12.9 0 0 0 4.177,2.793 12.9,12.9 0 0 0 9.858,0 12.9,12.9 0 0 0 4.177,-2.793 l 86.919,-86.781 a 12.88,12.88 0 0 0 3.776,-9.109 12.88,12.88 0 0 0 -3.776,-9.11"
         id="path1" />
    </g>
    <defs
       id="defs2">
      <clipPath
         id="skillIconsGit0">
        <path
           fill="#f03c2e"
           d="M 28,28 H 228 V 228 H 28 Z"
           id="path2" />
      </clipPath>
    </defs>
  </g>
</svg>
