<?xml version="1.0" encoding="UTF-8"?>
<svg width="50" height="50" version="1.1" viewBox="0 0 256 256" xmlns="http://www.w3.org/2000/svg">
 <g fill="none">
  <path d="m128 146.95c10.304 0 18.656-8.353 18.656-18.656s-8.352-18.656-18.656-18.656-18.656 8.353-18.656 18.656 8.353 18.656 18.656 18.656" fill="#00d8ff"/>
  <g clip-rule="evenodd" stroke="#00d8ff" stroke-width="8.911">
   <path d="m128 90.363c25.048 0 48.317 3.594 65.862 9.635 21.139 7.277 34.136 18.308 34.136 28.297 0 10.409-13.774 22.128-36.475 29.649-17.162 5.686-39.746 8.654-63.523 8.654-24.378 0-47.463-2.786-64.819-8.717-21.958-7.505-35.183-19.375-35.183-29.586 0-9.908 12.41-20.854 33.252-28.12 17.61-6.14 41.453-9.812 66.746-9.812z"/>
   <path d="m94.981 109.44c12.514-21.698 27.251-40.06 41.249-52.24 16.864-14.677 32.914-20.425 41.566-15.436 9.017 5.2 12.288 22.988 7.463 46.41-3.645 17.707-12.359 38.753-24.238 59.351-12.179 21.118-26.124 39.724-39.931 51.792-17.471 15.272-34.362 20.799-43.207 15.698-8.583-4.946-11.865-21.167-7.747-42.852 3.479-18.323 12.21-40.812 24.841-62.723z"/>
   <path d="M95.012 147.578c-12.549-21.674-21.093-43.616-24.659-61.826c-4.293-21.941-1.258-38.716 7.387-43.72c9.009-5.216 26.052.834 43.934 16.712c13.52 12.004 27.403 30.061 39.316 50.639c12.214 21.098 21.368 42.473 24.929 60.461c4.506 22.764.859 40.157-7.978 45.272c-8.574 4.964-24.265-.291-40.996-14.689c-14.136-12.164-29.26-30.959-41.933-52.849Z"/>
  </g>
 </g>
</svg>
