<?xml version="1.0" encoding="UTF-8" standalone="no"?>
<svg
   width="256"
   height="256"
   viewBox="0 0 256 256"
   fill="none"
   version="1.1"
   id="svg5"
   xmlns="http://www.w3.org/2000/svg"
   xmlns:svg="http://www.w3.org/2000/svg">
  <g
     clip-path="url(#clip0_141_14)"
     id="g3">
    <path
       d="M 58.0884,0 H 197.912 C 229.993,0 256,26.007 256,58.0884 V 197.912 C 256,229.993 229.993,256 197.912,256 H 58.0884 C 26.007,256 0,229.993 0,197.912 V 58.0884 C 0,26.007 26.007,0 58.0884,0 Z"
       fill="url(#paint0_linear_141_14)"
       id="path1"
       style="fill:url(#paint0_linear_141_14)" />
    <path
       d="m 246.309,36.6234 c -9.5,-8.594 -21.003,-5.1419 -32.356,5.0783 -1.685,1.5184 -3.366,3.2029 -5.04,5.0024 -19.421,20.8983 -37.447,59.6079 -43.048,89.1719 2.182,4.487 3.886,10.215 5.007,14.59 0.289,1.122 0.548,2.176 0.756,3.072 0.492,2.121 0.757,3.496 0.757,3.496 0,0 -0.174,-0.669 -0.888,-2.77 -0.136,-0.403 -0.287,-0.843 -0.467,-1.361 -0.077,-0.214 -0.183,-0.474 -0.3,-0.751 -1.267,-2.987 -4.771,-9.292 -6.313,-12.038 -1.319,3.948 -2.485,7.64 -3.461,10.981 4.452,8.263 7.165,22.424 7.165,22.424 0,0 -0.235,-0.917 -1.353,-4.12 -0.994,-2.834 -5.941,-11.627 -7.114,-13.681 -2.004,7.506 -2.8,12.574 -2.082,13.808 1.394,2.391 2.722,6.517 3.889,11.079 2.635,10.279 4.466,22.791 4.466,22.791 0,0 0.06,0.83 0.159,2.106 -0.366,8.631 -0.147,17.58 0.513,25.669 0.872,10.707 2.516,19.906 4.611,24.829 l 1.421,-0.787 c -3.076,-9.698 -4.325,-22.409 -3.778,-37.068 0.827,-22.406 5.911,-49.427 15.303,-77.59 15.868,-42.5146 37.884,-76.6257 58.034,-92.9158 -18.366,16.8239 -43.222,71.2818 -50.663,91.4478 -8.33,22.583 -14.235,43.775 -17.793,64.079 6.139,-19.034 25.989,-27.217 25.989,-27.217 0,0 9.736,-12.178 21.113,-29.578 -6.815,1.576 -18.006,4.275 -21.755,5.873 -5.528,2.352 -7.018,3.155 -7.018,3.155 0,0 17.91,-11.064 33.276,-16.072 21.133,-33.762 44.155,-81.7239 20.97,-102.7036 z"
       fill="#003b57"
       id="path2" />
    <path
       d="m 33.7305,48.6201 c -2.993,0 -5.4268,0.8878 -7.2925,2.6624 -1.8658,1.7762 -2.8123,4.1044 -2.8123,6.9572 0,1.4784 0.2351,2.8264 0.6982,4.0615 0.4632,1.2378 1.1839,2.3843 2.1529,3.4203 0.9689,1.037 2.9085,2.4456 5.799,4.2365 3.547,2.1697 5.8682,3.9305 6.9822,5.3054 1.1149,1.3736 1.668,2.8133 1.668,4.3142 0,2.0096 -0.6602,3.6136 -2.017,4.8195 -1.3593,1.2063 -3.177,1.8073 -5.4306,1.8073 -2.3771,0 -4.4477,-0.8396 -6.2258,-2.5069 -1.7781,-1.6698 -2.6757,-3.8782 -2.6959,-6.6463 h -1.1055 v 10.0471 h 1.1055 c 0.3375,-0.9514 0.8045,-1.4381 1.4158,-1.4381 0.2941,0 0.9829,0.2033 2.0559,0.583 2.6105,0.9307 4.7541,1.3798 6.4391,1.3798 2.9038,0 5.3825,-1.019 7.4476,-3.09 2.0621,-2.0699 3.1033,-4.5668 3.1033,-7.4818 0,-2.2603 -0.6874,-4.2713 -2.0365,-6.0243 -1.3492,-1.7551 -3.9729,-3.7966 -7.8938,-6.141 -3.3739,-2.0311 -5.564,-3.6854 -6.5749,-4.975 -1.0123,-1.2877 -1.5322,-2.7122 -1.5322,-4.2753 0,-1.6907 0.6199,-3.0488 1.8426,-4.0616 1.2226,-1.0136 2.8247,-1.5158 4.8293,-1.5158 2.256,0 4.1365,0.6708 5.6245,2.0211 1.4865,1.3525 2.3461,3.2269 2.5989,5.6357 h 1.1056 v -8.7062 h -1.028 c -0.1256,0.4438 -0.242,0.7276 -0.3491,0.8551 -0.104,0.1267 -0.3041,0.1943 -0.6012,0.1943 -0.3576,0 -0.9954,-0.1508 -1.9007,-0.447 -1.9395,-0.6545 -3.7277,-0.9911 -5.3724,-0.9911 z m 36.1328,0 c -3.647,0 -6.9581,0.8613 -9.9496,2.5846 -2.9962,1.7203 -5.3678,4.109 -7.118,7.1516 -1.7494,3.0422 -2.6183,6.2733 -2.6183,9.7166 0,4.6262 1.5113,8.7475 4.5579,12.3598 3.048,3.61 6.7005,5.8594 10.9387,6.724 0.969,0.5058 2.3553,1.8117 4.1698,3.9255 2.0451,2.3853 3.7751,4.1059 5.1979,5.1304 1.4213,1.0251 2.9558,1.7763 4.5772,2.2737 1.623,0.4953 3.3779,0.7385 5.2754,0.7385 2.2979,0 4.3553,-0.4002 6.1676,-1.2244 l -0.4073,-1.0105 c -1.0519,0.3803 -2.1738,0.5636 -3.3553,0.5636 -1.6036,0 -3.2242,-0.5298 -4.8487,-1.5935 -1.6222,-1.0664 -3.651,-3.1009 -6.0706,-6.1022 -1.1374,-1.438 -1.9225,-2.3453 -2.3662,-2.7011 4.6369,-0.9074 8.45,-3.1592 11.4236,-6.7629 2.9729,-3.6022 4.4608,-7.7133 4.4608,-12.3209 0,-5.4707 -1.9426,-10.0685 -5.7991,-13.8171 -3.8595,-3.7489 -8.6059,-5.6357 -14.2358,-5.6357 z m 22.5562,0 0.0583,1.1855 c 2.4282,0 3.7882,0.7167 4.0923,2.1571 0.1132,0.5154 0.1652,1.4669 0.1746,2.8372 l -0.0195,26.2157 c -0.0201,1.958 -0.2986,3.2082 -0.8339,3.7507 -0.5361,0.5387 -1.4422,0.8761 -2.7541,1.0105 l -0.0581,1.1855 h 24.2049 l 0.62,-5.9467 h -1.105 c -0.315,1.62 -1.039,2.7805 -2.191,3.4398 -1.156,0.6641 -3.198,0.9911 -6.149,0.9911 h -2.289 c -2.654,0 -4.19,-0.9617 -4.596,-2.8956 -0.084,-0.3826 -0.112,-0.7929 -0.116,-1.2438 l 0.097,-26.5072 c -0.001,-1.9548 0.246,-3.2648 0.756,-3.906 0.516,-0.6391 1.446,-0.9967 2.792,-1.0883 l -0.057,-1.1855 z m -22.1683,1.4381 c 4.1132,0 7.4717,1.6232 10.066,4.8972 2.5934,3.2751 3.879,7.764 3.879,13.448 0,5.3861 -1.3042,9.6987 -3.9178,12.9426 -2.6138,3.2429 -6.0924,4.8584 -10.4151,4.8584 -4.1529,0 -7.5206,-1.6659 -10.1048,-5.0138 -2.5819,-3.3481 -3.8596,-7.6947 -3.8596,-13.0399 0,-5.4927 1.2933,-9.8895 3.8984,-13.1758 2.6036,-3.2829 6.09,-4.9167 10.4539,-4.9167 z m 55.6638,5.6357 c -0.59,0 -1.041,0.1998 -1.377,0.6024 -0.345,0.4011 -0.45,0.8869 -0.33,1.477 0.116,0.5723 0.438,1.0739 0.95,1.4963 0.509,0.422 1.059,0.6413 1.649,0.6413 0.57,0 1.006,-0.2193 1.319,-0.6413 0.313,-0.4224 0.407,-0.924 0.291,-1.4963 -0.121,-0.5901 -0.432,-1.0759 -0.912,-1.477 -0.485,-0.4026 -1.02,-0.6024 -1.59,-0.6024 z m 15.962,4.0227 c -1.004,3.8666 -3.178,5.9591 -6.517,6.2964 l 0.038,1.1078 h 3.899 l -0.077,13.098 c 0.006,2.2395 0.074,3.7303 0.232,4.4892 0.384,1.8167 1.569,2.7401 3.549,2.7401 2.867,0 5.875,-1.7497 9.019,-5.247 l -0.95,-0.8163 c -2.271,2.3032 -4.279,3.4592 -6.032,3.4592 -1.077,0 -1.746,-0.6209 -1.998,-1.8462 -0.069,-0.2975 -0.096,-0.6452 -0.096,-1.0494 l 0.039,-14.8276 h 5.953 l -0.058,-1.7685 h -5.877 v -5.6357 z m 23.021,4.9361 c -3.33,0 -6.039,1.62 -8.145,4.839 -2.096,3.2244 -2.745,6.7968 -1.92,10.7271 0.485,2.3023 1.45,4.0866 2.928,5.3443 1.476,1.2571 3.348,1.885 5.585,1.885 2.085,0 4.987,-0.5287 6.207,-1.5936 1.224,-1.0642 2.353,-2.7883 3.394,-5.1497 l -0.834,-0.8746 c -1.661,3.0635 -5.016,4.6057 -7.544,4.6057 -3.478,0 -5.607,-1.9115 -6.4,-5.7134 -0.104,-0.4853 -0.181,-1.0067 -0.234,-1.5547 4.137,-0.6562 7.272,-1.8182 9.388,-3.498 2.114,-1.6807 4.237,-3.4621 3.84,-5.3442 -0.236,-1.1183 -0.816,-1.9976 -1.707,-2.6623 -0.903,-0.6644 -3.248,-1.0106 -4.558,-1.0106 z m -36.404,0.136 -7.176,1.6519 v 1.2826 l 2.482,-0.311 c 1.203,0 1.91,0.5456 2.134,1.6324 0.075,0.3638 0.122,0.8745 0.136,1.5159 l -0.078,11.7572 c -0.02,1.6269 -0.2,2.5728 -0.562,2.8567 -0.365,0.2845 -1.329,0.4275 -2.89,0.4275 l -0.039,1.1077 h 11.385 l -0.02,-1.1077 c -1.582,0 -2.607,-0.125 -3.064,-0.3692 -0.449,-0.2426 -0.758,-0.6842 -0.892,-1.3604 -0.104,-0.4873 -0.148,-1.3269 -0.155,-2.4875 l 0.039,-16.5961 z m 34.582,2.1766 c 0.692,0 1.362,0.2681 2.036,0.7968 0.664,0.5268 1.07,1.1126 1.202,1.7489 0.65,3.1258 -2.117,5.2868 -8.34,6.4908 -0.178,-2.2792 0.217,-4.3482 1.223,-6.2187 0.997,-1.8686 2.297,-2.8178 3.879,-2.8178 z"
       fill="#003b57"
       id="path3" />
  </g>
  <defs
     id="defs5">
    <linearGradient
       id="paint0_linear_141_14"
       x1="148.16499"
       y1="1.78778"
       x2="148.16499"
       y2="244.961"
       gradientUnits="userSpaceOnUse">
      <stop
         stop-color="#97D9F6"
         id="stop3" />
      <stop
         offset="0.920245"
         stop-color="#0F80CC"
         id="stop4" />
      <stop
         offset="1"
         stop-color="#0F80CC"
         id="stop5" />
    </linearGradient>
    <clipPath
       id="clip0_141_14">
      <rect
         width="256"
         height="256"
         fill="#ffffff"
         id="rect5"
         x="0"
         y="0" />
    </clipPath>
  </defs>
</svg>
