<?xml version="1.0" encoding="UTF-8" standalone="no"?>
<svg
   width="96"
   height="96"
   viewBox="0 0 256 256"
   version="1.1"
   id="svg2"
   xmlns="http://www.w3.org/2000/svg"
   xmlns:svg="http://www.w3.org/2000/svg">
  <defs
     id="defs3" />
  <g
     fill="none"
     id="g2">
    <path
       fill="url(#SVGYCM7xdyn)"
       fill-rule="evenodd"
       d="m 83,110 q 9,-36 45,-36 c 36,0 40.5,27 58.5,31.5 q 18,4.502 31.5,-13.5 -9,36 -45,36 c -36,0 -40.5,-27 -58.5,-31.5 Q 96.5,92 83,110 m -45,54 q 9,-36 45,-36 c 36,0 40.5,27 58.5,31.5 q 18,4.502 31.5,-13.5 -9,36 -45,36 C 92,182 87.5,155 69.5,150.5 Q 51.5,145.998 38,164"
       clip-rule="evenodd"
       id="path1"
       style="fill:#32b1c1;fill-opacity:1" />
    <defs
       id="defs2" />
  </g>
</svg>
