<?xml version="1.0" encoding="UTF-8"?>
<svg xmlns="http://www.w3.org/2000/svg" xmlns:xlink="http://www.w3.org/1999/xlink" width="30px" height="30px" viewBox="0 0 30 30" version="1.1">
<g id="surface1">
<path style=" stroke:none;fill-rule:nonzero;fill:rgb(100%,100%,100%);fill-opacity:1;" d="M 28.320312 15.144531 C 28.320312 7.824219 22.382812 1.890625 15.0625 1.890625 C 7.742188 1.890625 1.808594 7.824219 1.808594 15.144531 C 1.808594 22.464844 7.742188 28.398438 15.0625 28.398438 C 22.382812 28.398438 28.320312 22.464844 28.320312 15.144531 Z M 28.320312 15.144531 "/>
<path style=" stroke:none;fill-rule:nonzero;fill:rgb(0%,0%,0%);fill-opacity:1;" d="M 14.972656 0 C 19.1875 0 22.742188 1.445312 25.632812 4.339844 C 28.542969 7.25 30 10.804688 30 15 C 30 19.214844 28.570312 22.722656 25.714844 25.527344 C 22.675781 28.507812 19.097656 30 14.972656 30 C 10.917969 30 7.402344 28.527344 4.417969 25.578125 C 1.472656 22.632812 0 19.105469 0 15 C 0 10.894531 1.472656 7.339844 4.417969 4.339844 C 7.3125 1.445312 10.828125 0 14.972656 0 Z M 15.027344 2.707031 C 11.617188 2.707031 8.730469 3.902344 6.375 6.292969 C 3.929688 8.796875 2.707031 11.695312 2.707031 15 C 2.707031 18.320312 3.917969 21.199219 6.347656 23.625 C 8.777344 26.054688 11.667969 27.265625 15.027344 27.265625 C 18.363281 27.265625 21.277344 26.046875 23.757812 23.597656 C 26.117188 21.328125 27.292969 18.464844 27.292969 15 C 27.292969 11.589844 26.097656 8.6875 23.707031 6.292969 C 21.3125 3.902344 18.417969 2.707031 15.027344 2.707031 Z M 19.042969 11.277344 L 19.042969 17.410156 L 17.332031 17.410156 L 17.332031 24.695312 L 12.667969 24.695312 L 12.667969 17.410156 L 10.957031 17.410156 L 10.957031 11.277344 C 10.957031 11.007812 11.050781 10.78125 11.238281 10.59375 C 11.425781 10.40625 11.652344 10.3125 11.917969 10.3125 L 18.082031 10.3125 C 18.332031 10.3125 18.554688 10.40625 18.75 10.59375 C 18.945312 10.78125 19.042969 11.007812 19.042969 11.277344 Z M 12.910156 7.417969 C 12.910156 6.011719 13.605469 5.304688 15 5.304688 C 16.394531 5.304688 17.089844 6.007812 17.089844 7.417969 C 17.089844 8.8125 16.394531 9.507812 15 9.507812 C 13.605469 9.507812 12.910156 8.8125 12.910156 7.417969 Z M 12.910156 7.417969 "/>
</g>
</svg>
