<?xml version="1.0" encoding="UTF-8"?>
<svg xmlns="http://www.w3.org/2000/svg" xmlns:xlink="http://www.w3.org/1999/xlink" width="30px" height="30px" viewBox="0 0 30 30" version="1.1">
<g id="surface1">
<path style=" stroke:none;fill-rule:nonzero;fill:rgb(100%,100%,100%);fill-opacity:1;" d="M 28.652344 15 C 28.652344 7.535156 22.597656 1.484375 15.132812 1.484375 C 7.667969 1.484375 1.617188 7.535156 1.617188 15 C 1.617188 22.464844 7.667969 28.515625 15.132812 28.515625 C 22.597656 28.515625 28.652344 22.464844 28.652344 15 Z M 28.652344 15 "/>
<path style=" stroke:none;fill-rule:nonzero;fill:rgb(0%,0%,0%);fill-opacity:1;" d="M 14.972656 0 C 19.167969 0 22.742188 1.464844 25.6875 4.394531 C 27.097656 5.804688 28.167969 7.414062 28.902344 9.226562 C 29.632812 11.039062 30 12.964844 30 15 C 30 17.054688 29.636719 18.976562 28.914062 20.773438 C 28.191406 22.566406 27.125 24.152344 25.714844 25.527344 C 24.25 26.972656 22.589844 28.078125 20.730469 28.847656 C 18.875 29.617188 16.957031 30 14.972656 30 C 12.992188 30 11.09375 29.621094 9.28125 28.859375 C 7.46875 28.101562 5.84375 27.003906 4.40625 25.566406 C 2.96875 24.128906 1.875 22.507812 1.125 20.707031 C 0.375 18.902344 0 17 0 15 C 0 13.019531 0.378906 11.113281 1.136719 9.28125 C 1.898438 7.449219 3 5.8125 4.445312 4.367188 C 7.304688 1.457031 10.8125 0 14.972656 0 Z M 15.027344 2.707031 C 11.597656 2.707031 8.714844 3.902344 6.375 6.292969 C 5.195312 7.492188 4.289062 8.835938 3.65625 10.324219 C 3.019531 11.816406 2.703125 13.375 2.703125 15 C 2.703125 16.609375 3.019531 18.15625 3.65625 19.648438 C 4.289062 21.140625 5.195312 22.46875 6.375 23.640625 C 7.554688 24.808594 8.882812 25.699219 10.367188 26.316406 C 11.847656 26.933594 13.402344 27.242188 15.027344 27.242188 C 16.632812 27.242188 18.191406 26.929688 19.703125 26.304688 C 21.210938 25.679688 22.570312 24.777344 23.785156 23.601562 C 26.125 21.3125 27.292969 18.449219 27.292969 15 C 27.292969 13.339844 26.988281 11.769531 26.382812 10.285156 C 25.777344 8.804688 24.890625 7.484375 23.734375 6.320312 C 21.320312 3.910156 18.417969 2.707031 15.027344 2.707031 Z M 14.839844 12.507812 L 12.828125 13.554688 C 12.613281 13.109375 12.351562 12.796875 12.039062 12.617188 C 11.726562 12.4375 11.4375 12.347656 11.167969 12.347656 C 9.828125 12.347656 9.160156 13.234375 9.160156 15 C 9.160156 15.804688 9.328125 16.445312 9.667969 16.929688 C 10.007812 17.410156 10.507812 17.652344 11.167969 17.652344 C 12.042969 17.652344 12.660156 17.222656 13.015625 16.367188 L 14.863281 17.304688 C 14.472656 18.035156 13.925781 18.613281 13.230469 19.03125 C 12.535156 19.453125 11.765625 19.660156 10.925781 19.660156 C 9.589844 19.660156 8.507812 19.25 7.6875 18.429688 C 6.863281 17.609375 6.453125 16.464844 6.453125 15 C 6.453125 13.574219 6.871094 12.4375 7.699219 11.601562 C 8.53125 10.761719 9.578125 10.339844 10.847656 10.339844 C 12.703125 10.339844 14.035156 11.0625 14.839844 12.507812 Z M 23.492188 12.507812 L 21.507812 13.554688 C 21.292969 13.109375 21.03125 12.796875 20.71875 12.617188 C 20.40625 12.4375 20.105469 12.347656 19.820312 12.347656 C 18.480469 12.347656 17.8125 13.234375 17.8125 15 C 17.8125 15.804688 17.980469 16.445312 18.320312 16.929688 C 18.660156 17.410156 19.160156 17.652344 19.820312 17.652344 C 20.695312 17.652344 21.3125 17.222656 21.667969 16.367188 L 23.542969 17.304688 C 23.132812 18.035156 22.578125 18.613281 21.882812 19.03125 C 21.1875 19.453125 20.425781 19.660156 19.605469 19.660156 C 18.25 19.660156 17.164062 19.25 16.351562 18.429688 C 15.539062 17.609375 15.132812 16.464844 15.132812 15 C 15.132812 13.574219 15.546875 12.4375 16.378906 11.601562 C 17.207031 10.761719 18.257812 10.339844 19.527344 10.339844 C 21.382812 10.339844 22.707031 11.0625 23.492188 12.507812 Z M 23.492188 12.507812 "/>
</g>
</svg>
