<?xml version="1.0" encoding="UTF-8"?>
<svg xmlns="http://www.w3.org/2000/svg" xmlns:xlink="http://www.w3.org/1999/xlink" width="30px" height="30px" viewBox="0 0 30 30" version="1.1">
<g id="surface1">
<path style=" stroke:none;fill-rule:nonzero;fill:rgb(100%,100%,100%);fill-opacity:1;" d="M 28.800781 15.109375 C 28.800781 7.480469 22.617188 1.296875 14.984375 1.296875 C 7.355469 1.296875 1.171875 7.480469 1.171875 15.109375 C 1.171875 22.738281 7.355469 28.925781 14.984375 28.925781 C 22.617188 28.925781 28.800781 22.738281 28.800781 15.109375 Z M 28.800781 15.109375 "/>
<path style=" stroke:none;fill-rule:nonzero;fill:rgb(0%,0%,0%);fill-opacity:1;" d="M 14.972656 0 C 19.1875 0 22.742188 1.445312 25.632812 4.339844 C 28.542969 7.230469 30 10.785156 30 15 C 30 19.214844 28.570312 22.722656 25.714844 25.527344 C 22.679688 28.507812 19.097656 30 14.972656 30 C 10.902344 30 7.382812 28.519531 4.417969 25.554688 C 1.472656 22.605469 0 19.089844 0 15 C 0 10.894531 1.472656 7.339844 4.417969 4.339844 C 7.3125 1.445312 10.828125 0 14.972656 0 Z M 3.375 10.957031 C 2.929688 12.1875 2.707031 13.535156 2.707031 15 C 2.707031 18.320312 3.917969 21.199219 6.347656 23.625 C 8.792969 26.035156 11.6875 27.242188 15.027344 27.242188 C 18.402344 27.242188 21.3125 26.019531 23.757812 23.570312 C 24.632812 22.734375 25.320312 21.859375 25.820312 20.945312 L 20.167969 18.429688 C 19.972656 19.375 19.496094 20.148438 18.734375 20.746094 C 17.976562 21.34375 17.078125 21.6875 16.042969 21.777344 L 16.042969 24.082031 L 14.300781 24.082031 L 14.300781 21.777344 C 12.640625 21.757812 11.125 21.160156 9.75 19.980469 L 11.8125 17.894531 C 12.792969 18.804688 13.910156 19.257812 15.160156 19.257812 C 15.675781 19.257812 16.121094 19.144531 16.488281 18.910156 C 16.851562 18.679688 17.035156 18.296875 17.035156 17.757812 C 17.035156 17.382812 16.902344 17.078125 16.632812 16.847656 L 15.1875 16.230469 L 13.417969 15.425781 L 11.035156 14.382812 Z M 15.027344 2.679688 C 11.617188 2.679688 8.730469 3.882812 6.375 6.292969 C 5.785156 6.882812 5.230469 7.554688 4.714844 8.304688 L 10.445312 10.875 C 10.695312 10.089844 11.167969 9.460938 11.867188 8.988281 C 12.5625 8.515625 13.375 8.25 14.304688 8.195312 L 14.304688 5.894531 L 16.046875 5.894531 L 16.046875 8.195312 C 17.421875 8.269531 18.671875 8.730469 19.796875 9.589844 L 17.839844 11.597656 C 17 11.007812 16.144531 10.714844 15.269531 10.714844 C 14.804688 10.714844 14.390625 10.804688 14.023438 10.980469 C 13.65625 11.160156 13.472656 11.464844 13.472656 11.894531 C 13.472656 12.019531 13.519531 12.144531 13.605469 12.269531 L 15.507812 13.125 L 16.820312 13.714844 L 19.234375 14.785156 L 26.917969 18.214844 C 27.167969 17.160156 27.292969 16.089844 27.292969 15 C 27.292969 11.554688 26.097656 8.652344 23.707031 6.292969 C 21.332031 3.882812 18.4375 2.679688 15.027344 2.679688 Z M 15.027344 2.679688 "/>
</g>
</svg>
