<?xml version="1.0" encoding="UTF-8"?>
<svg xmlns="http://www.w3.org/2000/svg" xmlns:xlink="http://www.w3.org/1999/xlink" width="30px" height="30px" viewBox="0 0 30 30" version="1.1">
<g id="surface1">
<path style=" stroke:none;fill-rule:nonzero;fill:rgb(100%,100%,100%);fill-opacity:1;" d="M 28.628906 14.902344 C 28.628906 7.390625 22.542969 1.300781 15.03125 1.300781 C 7.519531 1.300781 1.429688 7.390625 1.429688 14.902344 C 1.429688 22.410156 7.519531 28.5 15.03125 28.5 C 22.542969 28.5 28.628906 22.410156 28.628906 14.902344 Z M 28.628906 14.902344 "/>
<path style=" stroke:none;fill-rule:nonzero;fill:rgb(0%,0%,0%);fill-opacity:1;" d="M 14.972656 0 C 19.171875 0 22.722656 1.457031 25.632812 4.367188 C 28.542969 7.257812 30 10.804688 30 15 C 30 19.195312 28.570312 22.714844 25.714844 25.554688 C 22.695312 28.519531 19.117188 30 14.972656 30 C 10.917969 30 7.402344 28.527344 4.421875 25.578125 C 1.472656 22.632812 0 19.105469 0 15 C 0 10.910156 1.472656 7.367188 4.421875 4.367188 C 7.332031 1.457031 10.847656 0 14.972656 0 Z M 15.027344 2.707031 C 11.617188 2.707031 8.734375 3.910156 6.375 6.320312 C 3.929688 8.804688 2.707031 11.695312 2.707031 15 C 2.707031 18.339844 3.921875 21.214844 6.347656 23.625 C 8.777344 26.054688 11.667969 27.269531 15.027344 27.269531 C 18.367188 27.269531 21.277344 26.046875 23.757812 23.597656 C 26.117188 21.3125 27.292969 18.445312 27.292969 15 C 27.292969 11.570312 26.097656 8.679688 23.707031 6.320312 C 21.332031 3.910156 18.4375 2.707031 15.027344 2.707031 Z M 20.679688 11.464844 L 20.679688 14.035156 L 9.777344 14.035156 L 9.777344 11.464844 Z M 20.679688 16.285156 L 20.679688 18.855469 L 9.777344 18.855469 L 9.777344 16.285156 Z M 20.679688 16.285156 "/>
</g>
</svg>
