<?xml version="1.0" encoding="UTF-8"?>
<svg xmlns="http://www.w3.org/2000/svg" xmlns:xlink="http://www.w3.org/1999/xlink" width="30px" height="30px" viewBox="0 0 30 30" version="1.1">
<g id="surface1">
<path style=" stroke:none;fill-rule:nonzero;fill:rgb(100%,100%,100%);fill-opacity:1;" d="M 28.382812 15.0625 C 28.382812 7.527344 22.273438 1.417969 14.738281 1.417969 C 7.203125 1.417969 1.097656 7.527344 1.097656 15.0625 C 1.097656 22.597656 7.203125 28.703125 14.738281 28.703125 C 22.273438 28.703125 28.382812 22.597656 28.382812 15.0625 Z M 28.382812 15.0625 "/>
<path style=" stroke:none;fill-rule:nonzero;fill:rgb(0%,0%,0%);fill-opacity:1;" d="M 14.972656 0 C 19.167969 0 22.722656 1.457031 25.632812 4.367188 C 28.542969 7.257812 30 10.804688 30 15 C 30 19.195312 28.570312 22.714844 25.714844 25.554688 C 22.695312 28.519531 19.113281 30 14.972656 30 C 10.917969 30 7.402344 28.527344 4.417969 25.582031 C 1.472656 22.632812 0 19.109375 0 15 C 0 10.910156 1.472656 7.367188 4.417969 4.367188 C 7.332031 1.457031 10.847656 0 14.972656 0 Z M 15.027344 2.707031 C 11.617188 2.707031 8.730469 3.910156 6.375 6.320312 C 3.929688 8.804688 2.707031 11.695312 2.707031 15 C 2.707031 18.339844 3.917969 21.214844 6.347656 23.625 C 8.777344 26.054688 11.667969 27.269531 15.027344 27.269531 C 18.363281 27.269531 21.277344 26.042969 23.757812 23.597656 C 26.117188 21.3125 27.292969 18.445312 27.292969 15 C 27.292969 11.570312 26.097656 8.679688 23.707031 6.320312 C 21.328125 3.910156 18.4375 2.707031 15.027344 2.707031 Z M 8.332031 12.882812 C 8.617188 11.042969 9.355469 9.621094 10.554688 8.613281 C 11.75 7.601562 13.203125 7.097656 14.917969 7.097656 C 17.273438 7.097656 19.152344 7.859375 20.542969 9.375 C 21.9375 10.890625 22.632812 12.839844 22.632812 15.214844 C 22.632812 17.519531 21.910156 19.433594 20.464844 20.957031 C 19.015625 22.484375 17.144531 23.25 14.839844 23.25 C 13.140625 23.25 11.675781 22.742188 10.445312 21.722656 C 9.214844 20.703125 8.472656 19.257812 8.222656 17.382812 L 12 17.382812 C 12.089844 19.203125 13.1875 20.117188 15.292969 20.117188 C 16.347656 20.117188 17.195312 19.660156 17.839844 18.75 C 18.484375 17.839844 18.804688 16.625 18.804688 15.105469 C 18.804688 13.515625 18.507812 12.308594 17.921875 11.476562 C 17.332031 10.648438 16.484375 10.230469 15.375 10.230469 C 13.375 10.230469 12.25 11.117188 12 12.882812 L 13.097656 12.882812 L 10.125 15.855469 L 7.152344 12.882812 Z M 8.332031 12.882812 "/>
</g>
</svg>
